<svg width="100" height="100" viewBox="0 0 100 100" xmlns="http://www.w3.org/2000/svg">
  <defs>
    <radialGradient id="grad3" cx="50%" cy="50%" r="50%" fx="50%" fy="50%">
      <stop offset="0%" style="stop-color:#ffca28;stop-opacity:1" />
      <stop offset="100%" style="stop-color:#ffb300;stop-opacity:1" />
    </radialGradient>
  </defs>
  <path d="M50,10 C20,10 10,40 10,50 C10,90 40,90 50,90 C60,90 90,90 90,50 C90,40 80,10 50,10 Z" fill="url(#grad3)"/>
  <circle cx="50" cy="50" r="5" fill="white"/>
  <circle cx="30" cy="40" r="4" fill="white"/>
  <circle cx="70" cy="40" r="4" fill="white"/>
  <circle cx="35" cy="65" r="3" fill="white"/>
  <circle cx="65" cy="65" r="3" fill="white"/>
  <path d="M50 50 L 30 40 M50 50 L 70 40 M50 50 L 35 65 M50 50 L 65 65" stroke="white" stroke-width="1.5"/>
</svg>
